<!-- Placeholder para imagen de Teclado Mecánico -->
<svg width="300" height="200" xmlns="http://www.w3.org/2000/svg">
  <defs>
    <linearGradient id="keyboardGradient" x1="0%" y1="0%" x2="100%" y2="100%">
      <stop offset="0%" style="stop-color:#2c3e50;stop-opacity:1" />
      <stop offset="100%" style="stop-color:#8e44ad;stop-opacity:1" />
    </linearGradient>
  </defs>
  
  <!-- Keyboard base -->
  <rect x="20" y="80" width="260" height="80" fill="url(#keyboardGradient)" rx="8"/>
  
  <!-- Keys row 1 -->
  <rect x="30" y="90" width="15" height="12" fill="#ecf0f1" rx="2"/>
  <rect x="50" y="90" width="15" height="12" fill="#ecf0f1" rx="2"/>
  <rect x="70" y="90" width="15" height="12" fill="#ecf0f1" rx="2"/>
  <rect x="90" y="90" width="15" height="12" fill="#ecf0f1" rx="2"/>
  <rect x="110" y="90" width="15" height="12" fill="#ecf0f1" rx="2"/>
  <rect x="130" y="90" width="15" height="12" fill="#ecf0f1" rx="2"/>
  <rect x="150" y="90" width="15" height="12" fill="#ecf0f1" rx="2"/>
  <rect x="170" y="90" width="15" height="12" fill="#ecf0f1" rx="2"/>
  <rect x="190" y="90" width="15" height="12" fill="#ecf0f1" rx="2"/>
  <rect x="210" y="90" width="15" height="12" fill="#ecf0f1" rx="2"/>
  <rect x="230" y="90" width="15" height="12" fill="#ecf0f1" rx="2"/>
  <rect x="250" y="90" width="20" height="12" fill="#ecf0f1" rx="2"/>
  
  <!-- Keys row 2 -->
  <rect x="30" y="110" width="20" height="12" fill="#ecf0f1" rx="2"/>
  <rect x="55" y="110" width="15" height="12" fill="#ecf0f1" rx="2"/>
  <rect x="75" y="110" width="15" height="12" fill="#ecf0f1" rx="2"/>
  <rect x="95" y="110" width="15" height="12" fill="#ecf0f1" rx="2"/>
  <rect x="115" y="110" width="15" height="12" fill="#ecf0f1" rx="2"/>
  <rect x="135" y="110" width="15" height="12" fill="#ecf0f1" rx="2"/>
  <rect x="155" y="110" width="15" height="12" fill="#ecf0f1" rx="2"/>
  <rect x="175" y="110" width="15" height="12" fill="#ecf0f1" rx="2"/>
  <rect x="195" y="110" width="15" height="12" fill="#ecf0f1" rx="2"/>
  <rect x="215" y="110" width="15" height="12" fill="#ecf0f1" rx="2"/>
  <rect x="235" y="110" width="35" height="12" fill="#ecf0f1" rx="2"/>
  
  <!-- Spacebar -->
  <rect x="80" y="140" width="140" height="12" fill="#ecf0f1" rx="2"/>
  
  <!-- RGB lighting effect -->
  <rect x="20" y="165" width="260" height="3" fill="#e74c3c" opacity="0.8"/>
  <rect x="20" y="165" width="87" height="3" fill="#3498db" opacity="0.8"/>
  <rect x="107" y="165" width="86" height="3" fill="#2ecc71" opacity="0.8"/>
  <rect x="193" y="165" width="87" height="3" fill="#f39c12" opacity="0.8"/>
  
  <!-- Mechanical text -->
  <text x="150" y="185" font-family="Arial, sans-serif" font-size="14" font-weight="bold" fill="#8e44ad" text-anchor="middle">MECHANICAL RGB</text>
</svg>